<?xml version="1.0" encoding="utf-8"?>
<!-- Generator: Adobe Illustrator 17.0.0, SVG Export Plug-In . SVG Version: 6.00 Build 0)  -->
<!DOCTYPE svg PUBLIC "-//W3C//DTD SVG 1.1//EN" "http://www.w3.org/Graphics/SVG/1.1/DTD/svg11.dtd">
<svg version="1.1" id="Layer_1" xmlns="http://www.w3.org/2000/svg" xmlns:xlink="http://www.w3.org/1999/xlink" x="0px" y="0px"
	 width="400px" height="400px" viewBox="0 0 400 400" enable-background="new 0 0 400 400" xml:space="preserve">
<polygon fill="none" points="0,300 0,0 400,0 400,100 220,160 200,200 180,240 "/>
<g>
	<defs>
		<polygon id="SVGID_1_" points="10,10 390,10 390,92.792 212.908,151.823 172.908,231.823 10,286.126 		"/>
	</defs>
	<clipPath id="SVGID_2_">
		<use xlink:href="#SVGID_1_"  overflow="visible"/>
	</clipPath>
	
		<circle clip-path="url(#SVGID_2_)" fill="none" stroke="#B39DDB" stroke-width="20" stroke-miterlimit="10" cx="200" cy="199" r="175"/>
	<circle clip-path="url(#SVGID_2_)" fill="#512DA8" cx="200" cy="198" r="135"/>
</g>
<polygon fill="none" points="400,100 400,400 0,400 0,300 180,240 200,200 220,160 "/>
<g>
	<defs>
		<polygon id="SVGID_3_" points="10,390 10,307.208 187.092,248.177 227.092,168.177 390,113.875 390,390 		"/>
	</defs>
	<clipPath id="SVGID_4_">
		<use xlink:href="#SVGID_3_"  overflow="visible"/>
	</clipPath>
	
		<circle clip-path="url(#SVGID_4_)" fill="none" stroke="#EF9A9A" stroke-width="20" stroke-miterlimit="10" cx="200" cy="200" r="175"/>
	<circle clip-path="url(#SVGID_4_)" fill="#D32F2F" cx="200" cy="199" r="135"/>
</g>
</svg>
