<?xml version="1.0" encoding="utf-8"?>
<!-- Generator: Adobe Illustrator 17.0.0, SVG Export Plug-In . SVG Version: 6.00 Build 0)  -->
<!DOCTYPE svg PUBLIC "-//W3C//DTD SVG 1.1//EN" "http://www.w3.org/Graphics/SVG/1.1/DTD/svg11.dtd">
<svg version="1.1" id="Layer_1" xmlns="http://www.w3.org/2000/svg" xmlns:xlink="http://www.w3.org/1999/xlink" x="0px" y="0px"
	 width="400px" height="400px" viewBox="0 0 400 400" style="enable-background:new 0 0 400 400;" xml:space="preserve">
<g>
	<path style="fill:#9CCC65;stroke:#33691E;stroke-width:30;stroke-miterlimit:10;" d="M124.027,115.36"/>
	<path style="fill:#D32F2F;" d="M199.726,104.727c0,0,46.718-0.637,71.481,24.681c24.337,6.663,51.808-99.407,51.808-99.407
		s22.973,39.45,27.481,71.86s-4.077,101.078-4.077,101.078s3.981,2.502,5.833,16.916s10.311,44.288,0,75.072
		c-10.311,30.784-63.914,64.056-87.788,70.736c-25.225,5.779-103.701,5.779-128.926,0c-23.874-6.68-77.477-39.834-87.788-70.618
		s-1.851-60.717,0-75.131c1.851-14.414,5.833-16.946,5.833-16.946s-8.585-68.684-4.077-101.093s27.481-71.867,27.481-71.867
		s27.471,106.067,51.808,99.403c24.762-25.319,71.481-24.683,71.481-24.683"/>
	<g>
		<path style="fill:#DF9A9A;" d="M101.707,161.397c0,0,24,32.333,65,47.667c-1,11.167-31.833,28-57.667,8.333
			S101.707,161.397,101.707,161.397z"/>
		<path style="fill:#DF9A9A;" d="M298.293,161.397c0,0-24,32.333-65,47.667c1,11.167,31.833,28,57.667,8.333
			C316.793,197.73,298.293,161.397,298.293,161.397z"/>
	</g>
</g>
<g>
</g>
<g>
</g>
<g>
</g>
<g>
</g>
<g>
</g>
<g>
</g>
<g>
</g>
<g>
</g>
<g>
</g>
<g>
</g>
<g>
</g>
<g>
</g>
<g>
</g>
<g>
</g>
<g>
</g>
</svg>
