<?xml version="1.0" encoding="utf-8"?>
<!-- Generator: Adobe Illustrator 17.0.0, SVG Export Plug-In . SVG Version: 6.00 Build 0)  -->
<!DOCTYPE svg PUBLIC "-//W3C//DTD SVG 1.1//EN" "http://www.w3.org/Graphics/SVG/1.1/DTD/svg11.dtd">
<svg version="1.1" id="Layer_1" xmlns="http://www.w3.org/2000/svg" xmlns:xlink="http://www.w3.org/1999/xlink" x="0px" y="0px"
	 width="400px" height="400px" viewBox="0 0 400 400" style="enable-background:new 0 0 400 400;" xml:space="preserve">
<ellipse style="fill:#90CAF9;" cx="82.735" cy="274.366" rx="78.229" ry="16.866"/>
<ellipse style="fill:#EF9A9A;" cx="317.272" cy="225.491" rx="78.229" ry="16.866"/>
<g id="Layer_2">
	<g>
		<g>
			<g style="enable-background:new    ;">
				<g style="enable-background:new    ;">
					<g>
						<g>
							<defs>
								<path id="SVGID_1_" d="M261.268,106.83c58.133,29.179,73.496,116.295,34.317,194.577l-73.38-36.595
									c39.18-78.282,23.816-165.398-34.317-194.577C209.902,81.212,239.268,95.823,261.268,106.83z"/>
							</defs>
							<clipPath id="SVGID_2_">
								<use xlink:href="#SVGID_1_"  style="overflow:visible;"/>
							</clipPath>
							<g style="clip-path:url(#SVGID_2_);">
								<g>
									<g>
										<path style="fill:#D32F2F;" d="M230.791,91.631l-19.804-9.876c23.513,13.448,51.103,36.752,55.798,98.106
											c6.602,3.292,13.203,6.584,19.804,9.877C285.085,171.951,280.513,117.824,230.791,91.631"/>
									</g>
								</g>
							</g>
						</g>
					</g>
				</g>
				<g style="enable-background:new    ;">
					<g>
						<g>
							<defs>
								<path id="SVGID_3_" d="M119.385,390.315l-73.38-36.595c-58.133-29.179-73.496-116.295-34.317-194.577
									s118.067-118.088,176.2-88.908l73.38,36.595c-58.133-29.179-137.02,10.626-176.2,88.908S61.252,361.136,119.385,390.315z"/>
							</defs>
							<clipPath id="SVGID_4_">
								<use xlink:href="#SVGID_3_"  style="overflow:visible;"/>
							</clipPath>
							<g style="clip-path:url(#SVGID_4_);">
								<g>
									<g>
										<path style="fill:#D32F2F;" d="M230.791,91.631c-65.578-28.569-139.809,11.755-180.516,98.058
											c6.313,3.148,12.624,6.296,18.937,9.444C52.856,217,35.947,237.777,23.081,268.551
											c-7.888-25.583-14.743-55.183-11.523-98.171c6.304,3.144,12.609,6.288,18.913,9.432
											c41.67-86.821,115.9-127.144,180.516-98.058L230.791,91.631"/>
									</g>
								</g>
							</g>
						</g>
					</g>
				</g>
			</g>
		</g>
	</g>
	<g>
		<g>
			<g style="enable-background:new    ;">
				<g style="enable-background:new    ;">
					<g>
						<g>
							<defs>
								<path id="SVGID_5_" d="M353.996,116.515c58.133,29.179,73.496,116.295,34.317,194.577l-73.373-36.591
									c39.18-78.282,23.816-165.398-34.317-194.577C302.635,90.9,331.998,105.509,353.996,116.515z"/>
							</defs>
							<clipPath id="SVGID_6_">
								<use xlink:href="#SVGID_5_"  style="overflow:visible;"/>
							</clipPath>
							<g style="clip-path:url(#SVGID_6_);">
								<g>
									<g>
										<path style="fill:#03A9F4;" d="M374.704,223.079c-3.995-15.656-13.351-52.316-41.629-90.559
											c6.819,3.4,13.637,6.801,20.457,10.201l1.754,4.217c7.131,3.556,14.263,7.113,21.394,10.669l-1.754-4.217
											c6.81,3.396,13.621,6.793,20.43,10.189C394.708,171.343,392.987,191.963,374.704,223.079"/>
										<path style="fill:#03A9F4;" d="M376.68,157.608l-1.754-4.217c-12.156-24.767-22.591-36.149-44.662-48.711
											c-2.201-1.098-5.136-2.561-7.337-3.659c-1.101-0.548-2.568-1.281-3.669-1.83c-2.201-1.098-5.136-2.561-7.337-3.659
											c-0.915-0.457-2.136-1.065-3.051-1.521c22.184,12.688,32.619,24.07,44.662,48.711l1.754,4.217
											C362.417,150.495,369.549,154.051,376.68,157.608"/>
									</g>
								</g>
							</g>
						</g>
					</g>
				</g>
				<g style="enable-background:new    ;">
					<g>
						<g>
							<defs>
								<path id="SVGID_7_" d="M212.112,400l-73.373-36.591c-58.133-29.179-73.496-116.295-34.317-194.577
									s118.067-118.088,176.2-88.908l73.373,36.591c-58.133-29.179-137.02,10.626-176.2,88.908S153.979,370.821,212.112,400z"/>
							</defs>
							<clipPath id="SVGID_8_">
								<use xlink:href="#SVGID_7_"  style="overflow:visible;"/>
							</clipPath>
							<g style="clip-path:url(#SVGID_8_);">
								<g>
									<g>
										<path style="fill:#03A9F4;" d="M330.264,104.68c-87.135-37.96-180.559,51.134-195.923,150.696
											c-2.201-1.098-5.136-2.561-7.337-3.659c-1.101-0.548-2.568-1.281-3.669-1.83c-2.201-1.098-5.136-2.561-7.337-3.659
											c-0.915-0.457-2.136-1.065-3.051-1.521C134.86,122.773,238.992,59.929,308.87,94.011
											C316.002,97.567,323.133,101.123,330.264,104.68"/>
									</g>
								</g>
							</g>
						</g>
					</g>
				</g>
			</g>
		</g>
	</g>
</g>
</svg>
