<?xml version="1.0" encoding="utf-8"?>
<!-- Generator: Adobe Illustrator 17.0.0, SVG Export Plug-In . SVG Version: 6.00 Build 0)  -->
<!DOCTYPE svg PUBLIC "-//W3C//DTD SVG 1.1//EN" "http://www.w3.org/Graphics/SVG/1.1/DTD/svg11.dtd">
<svg version="1.1" id="Layer_1" xmlns="http://www.w3.org/2000/svg" xmlns:xlink="http://www.w3.org/1999/xlink" x="0px" y="0px"
	 width="400px" height="400px" viewBox="0 0 400 400" style="enable-background:new 0 0 400 400;" xml:space="preserve">
<circle style="fill:#E1F5FE;stroke:#33691E;stroke-width:20;stroke-miterlimit:10;" cx="200" cy="200" r="165"/>
<g>
	<path style="fill:none;" d="M-138.068,124.63c-2.204,0-4.112,0.805-5.723,2.416c-1.611,1.611-2.416,3.518-2.416,5.723
		s0.805,4.112,2.416,5.723c1.611,1.611,3.518,2.416,5.723,2.416s4.112-0.805,5.723-2.416c1.611-1.611,2.416-3.518,2.416-5.723
		s-0.805-4.112-2.416-5.723C-133.956,125.435-135.864,124.63-138.068,124.63z"/>
	<path style="fill:#33691E;" d="M281.414,252.786l-2.561,3.461c-6.119,8.311-14.844,15.379-25.88,21.01
		c-10.841,5.532-23.06,9.23-36.195,10.994l-5.778,0.76V196h29.643c0.878,0,1.62-0.269,2.296-0.945
		c0.677-0.676,1.061-1.303,1.061-2.18v-16.278c0-0.877-0.385-1.74-1.06-2.416c-0.677-0.676-1.419-1.181-2.297-1.181H211v-28.137
		l2.585-1.449c4.22-2.474,7.621-5.75,10.175-10.018c2.518-4.208,3.745-8.713,3.745-13.774c0-7.677-2.637-14.05-8.07-19.483
		c-5.433-5.433-11.8-8.073-19.477-8.073c-7.677,0-14.039,2.641-19.472,8.073c-5.433,5.433-8.052,11.806-8.052,19.483
		c0,5.061,1.268,9.566,3.786,13.775c2.552,4.267,5.923,7.543,10.143,10.017l2.637,1.449V173h-29.748
		c-0.877,0-1.568,0.505-2.243,1.18c-0.677,0.677-1.009,1.539-1.009,2.417v16.278c0,0.877,0.332,1.504,1.009,2.18
		s1.366,0.945,2.243,0.945H189v93.011l-5.83-0.742c-13.136-1.764-25.463-5.444-36.305-10.976
		c-11.036-5.631-19.732-12.665-25.851-20.974l-2.547-3.317L132.677,239H91l0.002,41.467l14.159-14.337l3.504,4.194
		c9.522,11.442,22.506,20.649,38.592,27.382c16.221,6.789,33.949,10.227,52.691,10.227c18.742,0,36.485-3.445,52.705-10.234
		c16.086-6.732,29.085-15.949,38.607-27.392l3.527-4.212L309,280.254v-41.684l-41.739,0.002L281.414,252.786z M199.948,132.762
		c-3.518,0-6.72-1.342-9.258-3.88c-2.539-2.539-3.881-5.741-3.881-9.259c0-3.518,1.342-6.719,3.881-9.258s5.741-3.881,9.258-3.881
		c3.519,0,6.72,1.342,9.258,3.88c2.539,2.538,3.881,5.74,3.881,9.259s-1.342,6.721-3.88,9.258
		C206.668,131.42,203.466,132.762,199.948,132.762z"/>
</g>
<g>
</g>
<g>
</g>
<g>
</g>
<g>
</g>
<g>
</g>
<g>
</g>
<g>
</g>
<g>
</g>
<g>
</g>
<g>
</g>
<g>
</g>
<g>
</g>
<g>
</g>
<g>
</g>
<g>
</g>
</svg>
