<svg xmlns="http://www.w3.org/2000/svg" width="400" height="400">
  <path d="M322.63755 307.62129L209.8902 82.094133q-2.99603-6.166683-10.0415-6.166683-.88163 0-2.64299.353036-3.87577.880682-6.25352 3.963547-2.37965 3.083818-2.37965 6.959584V188.69103H87.099446q-3.873856 0-6.957676 2.3787-3.08191 2.3787-3.963546 6.25447-.880682 3.87671.704164 7.4004 1.585801 3.52368 5.109483 5.28599L307.48657 322.77227q2.28997 1.23467 5.10949 1.23467 4.75644 0 7.92901-3.34908 2.64108-2.46552 3.25746-6.07794.61734-3.61147-1.14498-6.95863z"
  fill="white"/>
  <path d="M196.81905-.09014158C121.31352.51487172 48.160093 47.935194 17.783921 117.238-9.4768652 176.91915-5.3999883 250.11715 30.036399 305.59978c34.201978 55.08544 96.249711 92.23635 161.313451 94.20951 64.37494 2.88247 129.56794-27.06815 167.97982-79.07205 37.90284-49.96058 50.97727-118.20463 32.13697-178.26675C373.56038 82.501303 326.2697 31.855384 266.84098 11.56837 244.42544 3.6164235 220.60678-.39687448 196.81905-.09014158zm2.68866 28.85711458c70.32237-1.141842 138.84912 46.689464 161.53895 113.343237 20.28397 55.75989 9.17098 121.84362-29.45673 167.28394-38.40229 46.37556-102.00998 70.47307-161.23429 59.1903-55.86661-9.68256-106.132581-48.49962-127.837457-101.31774-21.3595-49.6661-17.885759-109.47712 10.849711-155.75292C81.007812 65.342336 131.31046 33.616214 185.11662 29.443916c4.78425-.434202 9.58784-.639409 14.39109-.676943z"
  fill="white"/>
</svg>