<?xml version="1.0" encoding="utf-8"?>
<!-- Generator: Adobe Illustrator 16.0.0, SVG Export Plug-In . SVG Version: 6.00 Build 0)  -->
<!DOCTYPE svg PUBLIC "-//W3C//DTD SVG 1.1//EN" "http://www.w3.org/Graphics/SVG/1.1/DTD/svg11.dtd">
<svg version="1.1" id="Layer_1" xmlns="http://www.w3.org/2000/svg" xmlns:xlink="http://www.w3.org/1999/xlink" x="0px" y="0px"
	 width="800px" height="800px" viewBox="0 0 800 800" enable-background="new 0 0 800 800" xml:space="preserve">
<polygon fill="#F2F2F2" stroke="#4D4D4D" stroke-width="10" stroke-miterlimit="10" points="615,643.5 586,656.5 215,643.5 
	186,156.75 215,144 615,144 "/>
<rect x="186" y="157" fill="#F2F2F2" stroke="#4D4D4D" stroke-width="10" stroke-miterlimit="10" width="400" height="500"/>
<line fill="none" stroke="#4D4D4D" stroke-width="10" stroke-miterlimit="10" x1="586" y1="156.5" x2="615" y2="143.5"/>
<polygon fill="none" stroke="#4D4D4D" stroke-width="10" stroke-miterlimit="10" points="240.975,226 235.95,217 240.975,208 
	251.025,208 256.05,217 251.025,226 "/>
<polygon fill="none" stroke="#4D4D4D" stroke-width="10" stroke-miterlimit="10" points="240.975,606 235.95,597 240.975,588 
	251.025,588 256.05,597 251.025,606 "/>
<polygon fill="none" stroke="#4D4D4D" stroke-width="10" stroke-miterlimit="10" points="240.975,416 235.95,407 240.975,398 
	251.025,398 256.05,407 251.025,416 "/>
<polygon fill="none" stroke="#4D4D4D" stroke-width="10" stroke-miterlimit="10" points="521.975,226 516.95,217 521.975,208 
	532.025,208 537.05,217 532.025,226 "/>
<polygon fill="none" stroke="#4D4D4D" stroke-width="10" stroke-miterlimit="10" points="521.975,606 516.95,597 521.975,588 
	532.025,588 537.05,597 532.025,606 "/>
<polygon fill="none" stroke="#4D4D4D" stroke-width="10" stroke-miterlimit="10" points="521.975,416 516.95,407 521.975,398 
	532.025,398 537.05,407 532.025,416 "/>
</svg>
