<?xml version="1.0" encoding="utf-8"?>
<!-- Generator: Adobe Illustrator 17.0.0, SVG Export Plug-In . SVG Version: 6.00 Build 0)  -->
<!DOCTYPE svg PUBLIC "-//W3C//DTD SVG 1.1//EN" "http://www.w3.org/Graphics/SVG/1.1/DTD/svg11.dtd">
<svg version="1.1" id="Layer_1" xmlns="http://www.w3.org/2000/svg" xmlns:xlink="http://www.w3.org/1999/xlink" x="0px" y="0px"
	 width="400px" height="400px" viewBox="0 0 400 400" enable-background="new 0 0 400 400" xml:space="preserve">
<g>
	<path fill="#FFC400" d="M321,318.396c-3.2,2.138-7.868,4.669-14,7.601c-6.138,2.938-13.269,5.669-21.399,8.2
		c-8.138,2.537-17.27,4.668-27.4,6.4c-10.138,1.73-20.8,2.6-32,2.6c-20.8,0-39.269-3.463-55.4-10.4
		c-16.137-6.932-29.737-16.263-40.8-28c-11.069-11.731-19.4-25.531-25-41.4c-5.6-15.862-8.4-32.6-8.4-50.199
		c0-24.263,4.731-46.663,14.2-67.2c9.462-20.531,22.063-38.263,37.8-53.2c15.731-14.931,33.862-26.6,54.399-35
		c20.531-8.4,42-12.6,64.4-12.6c8,0,16.063,0.6,24.2,1.8c8.131,1.2,15.662,2.737,22.6,4.6c6.932,1.869,13,4,18.2,6.4
		s8.862,4.938,11,7.6c-2.938,3.737-5.269,6.8-7,9.2c-1.737,2.4-3.469,4.869-5.2,7.4c-1.737,2.537-3.669,5.4-5.8,8.6
		c-2.138,3.2-5.068,7.6-8.8,13.2c-2.938-2.131-6.601-4-11-5.6c-4.4-1.6-9-2.862-13.801-3.8c-4.8-0.931-9.668-1.663-14.6-2.2
		c-4.938-0.531-9.4-0.8-13.4-0.8c-16,0-31.137,3.069-45.399,9.2c-14.269,6.138-26.669,14.338-37.2,24.6
		c-10.537,10.269-18.938,22.069-25.2,35.4c-6.269,13.338-9.4,27.069-9.4,41.2c0,11.737,2.063,23.138,6.2,34.2
		c4.131,11.068,10.131,20.8,18,29.199c7.863,8.4,17.332,15.138,28.4,20.2c11.063,5.069,23.4,7.601,37,7.601
		c8.531,0,16.862-0.863,25-2.601c8.131-1.731,15.4-3.662,21.8-5.8c6.4-2.131,11.663-4.263,15.8-6.4
		c4.132-2.131,6.332-3.6,6.601-4.399L321,318.396z"/>
</g>
<g>
</g>
<g>
</g>
<g>
</g>
<g>
</g>
<g>
</g>
<g>
</g>
<g>
</g>
<g>
</g>
<g>
</g>
<g>
</g>
<g>
</g>
<g>
</g>
<g>
</g>
<g>
</g>
<g>
</g>
</svg>
