<?xml version="1.0" encoding="utf-8"?>
<!-- Generator: Adobe Illustrator 17.0.0, SVG Export Plug-In . SVG Version: 6.00 Build 0)  -->
<!DOCTYPE svg PUBLIC "-//W3C//DTD SVG 1.1//EN" "http://www.w3.org/Graphics/SVG/1.1/DTD/svg11.dtd">
<svg version="1.1" id="Layer_1" xmlns="http://www.w3.org/2000/svg" xmlns:xlink="http://www.w3.org/1999/xlink" x="0px" y="0px"
	 width="400px" height="400px" viewBox="0 0 400 400" enable-background="new 0 0 400 400" xml:space="preserve">
<g>
	<path fill="#B71C1C" d="M281.396,339.996l-22.8-76.8h-100.4c-4.8,9.068-9.469,17.8-14,26.199c-4.538,8.4-8.6,16.069-12.2,23
		c-3.6,6.938-6.737,12.801-9.4,17.601c-2.669,4.8-4.538,8.138-5.6,10h-48.4c1.337-2.4,4.6-8.331,9.8-17.8
		c5.2-9.463,11.663-21.2,19.4-35.2c7.731-14,16.331-29.601,25.8-46.8c9.462-17.2,19.131-34.731,29-52.6
		c9.862-17.863,19.531-35.4,29-52.6c9.462-17.2,18.063-32.8,25.8-46.8c7.731-14,14.2-25.731,19.4-35.2
		c5.199-9.462,8.462-15.4,9.8-17.8c0.8,2.4,2.662,8.337,5.6,17.8c2.932,9.469,6.531,21.2,10.8,35.2c4.263,14,9,29.6,14.2,46.8
		s10.531,34.737,16,52.6c5.463,17.869,10.862,35.4,16.2,52.6c5.331,17.199,10.131,32.8,14.4,46.8c4.262,14,7.8,25.737,10.6,35.2
		c2.8,9.469,4.601,15.399,5.4,17.8H281.396z M180.596,221.996h66c-5.069-16.8-9.469-31.663-13.2-44.6
		c-3.737-12.931-6.138-21.262-7.2-25c0-0.262-0.269-2.131-0.8-5.6c-0.537-3.462-1.068-6.531-1.6-9.2
		c-0.801,2.668-1.938,5.737-3.4,9.2c-1.469,3.469-2.338,5.338-2.6,5.6L180.596,221.996z"/>
</g>
<g>
</g>
<g>
</g>
<g>
</g>
<g>
</g>
<g>
</g>
<g>
</g>
<g>
</g>
<g>
</g>
<g>
</g>
<g>
</g>
<g>
</g>
<g>
</g>
<g>
</g>
<g>
</g>
<g>
</g>
</svg>
