<?xml version="1.0" encoding="utf-8"?>
<!-- Generator: Adobe Illustrator 17.0.0, SVG Export Plug-In . SVG Version: 6.00 Build 0)  -->
<!DOCTYPE svg PUBLIC "-//W3C//DTD SVG 1.1//EN" "http://www.w3.org/Graphics/SVG/1.1/DTD/svg11.dtd">
<svg version="1.1" id="Layer_1" xmlns="http://www.w3.org/2000/svg" xmlns:xlink="http://www.w3.org/1999/xlink" x="0px" y="0px"
	 width="400px" height="400px" viewBox="0 0 400 400" enable-background="new 0 0 400 400" xml:space="preserve">
<g>
	<path fill="#FFEB3B" d="M198.624,64.796l-19.264,40c-9.175-4-18.292-7.2-27.348-9.6c-9.063-2.4-17.716-3.6-25.972-3.6
		c-14.679,0-26.547,3.469-35.604,10.4c-9.062,6.938-13.588,15.737-13.588,26.4c0,7.738,2.752,14,8.256,18.8
		c5.504,4.8,12.325,9.269,20.468,13.4c8.138,4.137,16.969,8.337,26.488,12.6c9.514,4.269,18.345,9.537,26.488,15.8
		c8.138,6.269,14.964,14.2,20.468,23.8s8.256,21.6,8.256,36c0,13.869-2.236,26.537-6.708,38c-4.472,11.469-11.18,21.4-20.124,29.8
		c-8.944,8.4-20.124,14.938-33.54,19.601c-13.416,4.662-29.068,7-46.956,7c-10.094,0-19.151-0.8-27.176-2.4
		c-8.03-1.6-15.254-3.6-21.672-6c-6.423-2.4-11.986-5-16.684-7.8c-4.703-2.8-8.772-5.531-12.212-8.2l23.048-42.8
		c4.354,3.2,9.057,6,14.104,8.399c5.042,2.4,10.148,4.4,15.308,6c5.16,1.601,10.202,2.801,15.136,3.601
		c4.929,0.8,9.46,1.2,13.588,1.2c4.354,0,10.03-0.601,17.028-1.801c6.993-1.199,13.814-3.399,20.468-6.6
		c6.648-3.2,12.438-7.531,17.372-13c4.929-5.463,7.396-12.463,7.396-21c0-8.263-2.752-15.2-8.256-20.8
		c-5.504-5.601-12.33-10.601-20.468-15c-8.143-4.4-17.028-8.8-26.66-13.2c-9.632-4.4-18.522-9.531-26.66-15.4
		c-8.143-5.862-14.964-13-20.468-21.4s-8.256-18.862-8.256-31.4c0-10.4,2.005-20.931,6.02-31.6c4.009-10.663,9.917-20.2,17.716-28.6
		c7.793-8.4,17.485-15.262,29.068-20.6c11.578-5.331,25.053-8,40.42-8c8.713,0,17.141,0.869,25.284,2.6
		c8.138,1.738,15.421,3.669,21.844,5.8c6.418,2.137,11.75,4.2,15.996,6.2C195.469,63.396,197.936,64.534,198.624,64.796z"/>
	<path fill="#FFEB3B" d="M395.047,64.796l-19.264,40c-9.176-4-18.291-7.2-27.348-9.6c-9.063-2.4-17.717-3.6-25.973-3.6
		c-14.679,0-26.547,3.469-35.604,10.4c-9.063,6.938-13.588,15.737-13.588,26.4c0,7.738,2.752,14,8.256,18.8
		c5.504,4.8,12.325,9.269,20.468,13.4c8.138,4.137,16.97,8.337,26.489,12.6c9.514,4.269,18.344,9.537,26.486,15.8
		c8.139,6.269,14.965,14.2,20.469,23.8s8.256,21.6,8.256,36c0,13.869-2.236,26.537-6.707,38c-4.473,11.469-11.182,21.4-20.125,29.8
		c-8.943,8.4-20.123,14.938-33.539,19.601c-13.417,4.662-29.069,7-46.957,7c-10.094,0-19.151-0.8-27.176-2.4
		c-8.03-1.6-15.255-3.6-21.672-6c-6.424-2.4-11.986-5-16.685-7.8c-4.703-2.8-8.771-5.531-12.211-8.2l23.047-42.8
		c4.354,3.2,9.058,6,14.104,8.399c5.042,2.4,10.147,4.4,15.308,6c5.16,1.601,10.202,2.801,15.137,3.601
		c4.929,0.8,9.46,1.2,13.588,1.2c4.354,0,10.029-0.601,17.027-1.801c6.993-1.199,13.814-3.399,20.468-6.6
		c6.65-3.2,12.439-7.531,17.373-13c4.928-5.463,7.396-12.463,7.396-21c0-8.263-2.752-15.2-8.256-20.8
		c-5.506-5.601-12.332-10.601-20.469-15c-8.144-4.4-17.028-8.8-26.66-13.2c-9.632-4.4-18.522-9.531-26.66-15.4
		c-8.144-5.862-14.964-13-20.468-21.4s-8.256-18.862-8.256-31.4c0-10.4,2.005-20.931,6.02-31.6c4.01-10.663,9.917-20.2,17.716-28.6
		c7.794-8.4,17.485-15.262,29.068-20.6c11.577-5.331,25.053-8,40.42-8c8.713,0,17.141,0.869,25.283,2.6
		c8.139,1.738,15.422,3.669,21.846,5.8c6.416,2.137,11.748,4.2,15.996,6.2C391.893,63.396,394.359,64.534,395.047,64.796z"/>
</g>
<g>
</g>
<g>
</g>
<g>
</g>
<g>
</g>
<g>
</g>
<g>
</g>
<g>
</g>
<g>
</g>
<g>
</g>
<g>
</g>
<g>
</g>
<g>
</g>
<g>
</g>
<g>
</g>
<g>
</g>
</svg>
