<?xml version="1.0" encoding="utf-8"?>
<!-- Generator: Adobe Illustrator 17.0.0, SVG Export Plug-In . SVG Version: 6.00 Build 0)  -->
<!DOCTYPE svg PUBLIC "-//W3C//DTD SVG 1.1//EN" "http://www.w3.org/Graphics/SVG/1.1/DTD/svg11.dtd">
<svg version="1.1" id="Layer_1" xmlns="http://www.w3.org/2000/svg" xmlns:xlink="http://www.w3.org/1999/xlink" x="0px" y="0px"
	 width="400px" height="400px" viewBox="0 0 400 400" enable-background="new 0 0 400 400" xml:space="preserve">
<g>
	<path fill="#4CAF50" d="M119.8,48.396H195c26.4,0,48.8,3.869,67.2,11.6c18.4,7.737,33.263,17.8,44.601,30.2
		c11.331,12.4,19.531,26.537,24.6,42.4c5.063,15.869,7.601,31.938,7.601,48.2c0,24.537-4.601,46.6-13.801,66.2
		c-9.2,19.6-21.469,36.337-36.8,50.2c-15.338,13.868-32.938,24.469-52.8,31.8c-19.869,7.337-40.469,11-61.8,11h-90L119.8,48.396z
		 M171.8,293.596c16.531,0,31.931-2.462,46.199-7.399c14.263-4.932,26.731-12.132,37.4-21.601c10.662-9.462,19-21.131,25-35
		c6-13.862,9-29.731,9-47.6c0-15.462-2.669-28.731-8-39.8c-5.338-11.063-12.2-20-20.6-26.8c-8.4-6.8-17.801-11.8-28.2-15
		c-10.4-3.2-20.538-4.8-30.4-4.8H163c-3.737,33.069-7.668,66.069-11.8,99c-4.138,32.937-8.337,65.937-12.6,99H171.8z"/>
</g>
<g>
</g>
<g>
</g>
<g>
</g>
<g>
</g>
<g>
</g>
<g>
</g>
<g>
</g>
<g>
</g>
<g>
</g>
<g>
</g>
<g>
</g>
<g>
</g>
<g>
</g>
<g>
</g>
<g>
</g>
</svg>
