<?xml version="1.0" encoding="utf-8"?>
<!-- Generator: Adobe Illustrator 17.0.0, SVG Export Plug-In . SVG Version: 6.00 Build 0)  -->
<!DOCTYPE svg PUBLIC "-//W3C//DTD SVG 1.1//EN" "http://www.w3.org/Graphics/SVG/1.1/DTD/svg11.dtd">
<svg version="1.1" id="Layer_1" xmlns="http://www.w3.org/2000/svg" xmlns:xlink="http://www.w3.org/1999/xlink" x="0px" y="0px"
	 width="400px" height="400px" viewBox="0 0 400 400" enable-background="new 0 0 400 400" xml:space="preserve">
<g>
	<path fill="#FFEB3B" d="M317.998,64.796l-22.4,40c-10.669-4-21.269-7.2-31.8-9.6c-10.538-2.4-20.601-3.6-30.2-3.6
		c-17.068,0-30.869,3.469-41.4,10.4c-10.538,6.938-15.8,15.737-15.8,26.4c0,7.738,3.2,14,9.6,18.8c6.4,4.8,14.331,9.269,23.8,13.4
		c9.462,4.137,19.731,8.337,30.8,12.6c11.063,4.269,21.331,9.537,30.8,15.8c9.463,6.269,17.4,14.2,23.8,23.8
		c6.4,9.6,9.601,21.6,9.601,36c0,13.869-2.601,26.537-7.8,38c-5.2,11.469-13,21.4-23.4,29.8c-10.4,8.4-23.4,14.938-39,19.601
		c-15.6,4.662-33.8,7-54.6,7c-11.738,0-22.269-0.8-31.6-2.4c-9.337-1.6-17.738-3.6-25.2-6c-7.469-2.4-13.938-5-19.4-7.8
		c-5.469-2.8-10.2-5.531-14.2-8.2l26.8-42.8c5.063,3.2,10.531,6,16.4,8.399c5.862,2.4,11.8,4.4,17.8,6
		c6,1.601,11.863,2.801,17.6,3.601c5.731,0.8,11,1.2,15.8,1.2c5.063,0,11.662-0.601,19.8-1.801c8.131-1.199,16.063-3.399,23.8-6.6
		c7.731-3.2,14.463-7.531,20.2-13c5.731-5.463,8.6-12.463,8.6-21c0-8.263-3.2-15.2-9.6-20.8c-6.4-5.601-14.338-10.601-23.8-15
		c-9.469-4.4-19.801-8.8-31-13.2c-11.2-4.4-21.538-9.531-31-15.4c-9.469-5.862-17.4-13-23.8-21.4s-9.6-18.862-9.6-31.4
		c0-10.4,2.332-20.931,7-31.6c4.663-10.663,11.531-20.2,20.6-28.6c9.063-8.4,20.332-15.262,33.8-20.6c13.462-5.331,29.131-8,47-8
		c10.131,0,19.931,0.869,29.399,2.6c9.463,1.738,17.932,3.669,25.4,5.8c7.462,2.137,13.662,4.2,18.6,6.2
		C314.329,63.396,317.197,64.534,317.998,64.796z"/>
</g>
<g>
</g>
<g>
</g>
<g>
</g>
<g>
</g>
<g>
</g>
<g>
</g>
<g>
</g>
<g>
</g>
<g>
</g>
<g>
</g>
<g>
</g>
<g>
</g>
<g>
</g>
<g>
</g>
<g>
</g>
</svg>
