<?xml version="1.0" encoding="utf-8"?>
<!-- Generator: Adobe Illustrator 17.0.0, SVG Export Plug-In . SVG Version: 6.00 Build 0)  -->
<!DOCTYPE svg PUBLIC "-//W3C//DTD SVG 1.1//EN" "http://www.w3.org/Graphics/SVG/1.1/DTD/svg11.dtd">
<svg version="1.1" id="Layer_1" xmlns="http://www.w3.org/2000/svg" xmlns:xlink="http://www.w3.org/1999/xlink" x="0px" y="0px"
	 width="400px" height="400px" viewBox="0 0 400 400" enable-background="new 0 0 400 400" xml:space="preserve">
<g>
	<path fill="#F4511E" d="M106.999,339.996l35.6-291.6h80c26.4,0,47.331,5.069,62.8,15.2c15.463,10.137,23.2,26.8,23.2,50
		c0,8-0.869,16.069-2.6,24.2c-1.738,8.138-4.601,15.8-8.601,23c-4,7.2-9.269,13.538-15.8,19c-6.537,5.469-14.6,9.538-24.2,12.2
		c5.862,1.337,11.731,3.4,17.601,6.2c5.862,2.8,11.063,6.6,15.6,11.399c4.531,4.8,8.2,10.669,11,17.601
		c2.8,6.938,4.2,15.068,4.2,24.399c0,15.737-3.069,29.138-9.2,40.2c-6.138,11.068-14.269,20.2-24.4,27.4
		c-10.137,7.199-21.668,12.469-34.6,15.8c-12.938,3.337-26.068,5-39.4,5H106.999z M171.399,213.596l-10,82h38.4
		c8,0,15.462-0.931,22.399-2.8c6.932-1.862,13-4.731,18.2-8.6c5.2-3.863,9.331-8.663,12.4-14.4c3.063-5.731,4.6-12.463,4.6-20.2
		c0-6.662-1.469-12.331-4.399-17c-2.938-4.662-6.801-8.399-11.601-11.2c-4.8-2.8-10.399-4.8-16.8-6c-6.4-1.199-12.938-1.8-19.6-1.8
		H171.399z M186.199,92.796l-9.6,79.2h36.4c7.462,0,14-1.263,19.6-3.8c5.6-2.531,10.331-5.863,14.2-10c3.862-4.131,6.8-9,8.8-14.6
		s3-11.462,3-17.6c0-11.2-3.6-19.531-10.8-25c-7.2-5.462-16.938-8.2-29.2-8.2H186.199z"/>
</g>
<g>
</g>
<g>
</g>
<g>
</g>
<g>
</g>
<g>
</g>
<g>
</g>
<g>
</g>
<g>
</g>
<g>
</g>
<g>
</g>
<g>
</g>
<g>
</g>
<g>
</g>
<g>
</g>
<g>
</g>
</svg>
