<?xml version="1.0" encoding="utf-8"?>
<!-- Generator: Adobe Illustrator 16.0.0, SVG Export Plug-In . SVG Version: 6.00 Build 0)  -->
<!DOCTYPE svg PUBLIC "-//W3C//DTD SVG 1.1//EN" "http://www.w3.org/Graphics/SVG/1.1/DTD/svg11.dtd">
<svg version="1.1" id="Layer_2" xmlns="http://www.w3.org/2000/svg" xmlns:xlink="http://www.w3.org/1999/xlink" x="0px" y="0px"
	 width="800px" height="800px" viewBox="0 0 800 800" enable-background="new 0 0 800 800" xml:space="preserve">
<g>
	<polyline fill="#F2F2F2" stroke="#4D4D4D" stroke-width="10" stroke-miterlimit="10" points="339.943,481.163 420.951,562.173 
		337.583,681.722 278.595,622.733 220.395,564.534 339.701,480.924 	"/>
	<path fill="#F2F2F2" stroke="#4D4D4D" stroke-width="10" stroke-miterlimit="10" d="M339.155,480.377
		c-32.604,32.605-83.143,119.773-60.56,142.356c22.583,22.583,109.752-27.955,142.356-60.561L627.014,356.11
		c47.386-47.383,67.413-104.042,44.829-126.625c-22.581-22.583-79.239-2.554-126.626,44.83L339.155,480.377z"/>
	
		<line fill="#F2F2F2" stroke="#4D4D4D" stroke-width="10" stroke-miterlimit="10" x1="545.217" y1="274.314" x2="627.014" y2="356.11"/>
</g>
<g>
	<polyline fill="#F2F2F2" stroke="#4D4D4D" stroke-width="10" stroke-miterlimit="10" points="238.324,379.087 319.333,460.097 
		235.964,579.646 176.977,520.656 118.777,462.457 238.083,378.847 	"/>
	<path fill="#F2F2F2" stroke="#4D4D4D" stroke-width="10" stroke-miterlimit="10" d="M237.537,378.301
		c-32.604,32.604-83.143,119.773-60.561,142.355c22.583,22.584,109.752-27.955,142.357-60.56l206.062-206.063
		c47.385-47.385,67.412-104.043,44.83-126.626c-22.582-22.582-79.241-2.555-126.627,44.83L237.537,378.301z"/>
	
		<line fill="#F2F2F2" stroke="#4D4D4D" stroke-width="10" stroke-miterlimit="10" x1="443.599" y1="172.238" x2="525.396" y2="254.034"/>
</g>
</svg>
